<mxfile host="Electron" modified="2023-05-24T12:44:59.439Z" agent="Mozilla/5.0 (Windows NT 10.0; Win64; x64) AppleWebKit/537.36 (KHTML, like Gecko) draw.io/21.2.8 Chrome/112.0.5615.165 Electron/24.2.0 Safari/537.36" etag="tatvv1FkSab6LXhSmvoV" version="21.2.8" type="device">
  <diagram id="R2lEEEUBdFMjLlhIrx00" name="Page-1">
    <mxGraphModel dx="989" dy="665" grid="1" gridSize="10" guides="1" tooltips="1" connect="1" arrows="1" fold="1" page="1" pageScale="1" pageWidth="850" pageHeight="1100" math="0" shadow="0" extFonts="Permanent Marker^https://fonts.googleapis.com/css?family=Permanent+Marker">
      <root>
        <mxCell id="0" />
        <mxCell id="1" parent="0" />
        <mxCell id="tPthy4NSURfQdDl49ahd-11" style="edgeStyle=orthogonalEdgeStyle;rounded=0;orthogonalLoop=1;jettySize=auto;html=1;entryX=0.5;entryY=1;entryDx=0;entryDy=0;endArrow=none;endFill=0;" edge="1" parent="1" source="tPthy4NSURfQdDl49ahd-1" target="tPthy4NSURfQdDl49ahd-10">
          <mxGeometry relative="1" as="geometry" />
        </mxCell>
        <mxCell id="tPthy4NSURfQdDl49ahd-19" value="m" style="edgeLabel;html=1;align=center;verticalAlign=middle;resizable=0;points=[];labelBackgroundColor=none;" vertex="1" connectable="0" parent="tPthy4NSURfQdDl49ahd-11">
          <mxGeometry x="0.2684" y="1" relative="1" as="geometry">
            <mxPoint x="11" y="39" as="offset" />
          </mxGeometry>
        </mxCell>
        <mxCell id="tPthy4NSURfQdDl49ahd-1" value="Kunde" style="whiteSpace=wrap;html=1;align=center;" vertex="1" parent="1">
          <mxGeometry x="140" y="380" width="100" height="40" as="geometry" />
        </mxCell>
        <mxCell id="tPthy4NSURfQdDl49ahd-2" value="Produkte" style="whiteSpace=wrap;html=1;align=center;" vertex="1" parent="1">
          <mxGeometry x="600" y="380" width="100" height="40" as="geometry" />
        </mxCell>
        <mxCell id="tPthy4NSURfQdDl49ahd-39" style="edgeStyle=orthogonalEdgeStyle;rounded=0;orthogonalLoop=1;jettySize=auto;html=1;entryX=0;entryY=0.5;entryDx=0;entryDy=0;endArrow=none;endFill=0;" edge="1" parent="1" source="tPthy4NSURfQdDl49ahd-3" target="tPthy4NSURfQdDl49ahd-38">
          <mxGeometry relative="1" as="geometry" />
        </mxCell>
        <mxCell id="tPthy4NSURfQdDl49ahd-45" value="1" style="edgeLabel;html=1;align=center;verticalAlign=middle;resizable=0;points=[];labelBackgroundColor=none;" vertex="1" connectable="0" parent="tPthy4NSURfQdDl49ahd-39">
          <mxGeometry x="-0.2778" y="1" relative="1" as="geometry">
            <mxPoint x="-33" y="-9" as="offset" />
          </mxGeometry>
        </mxCell>
        <mxCell id="tPthy4NSURfQdDl49ahd-3" value="Bestellungen" style="whiteSpace=wrap;html=1;align=center;" vertex="1" parent="1">
          <mxGeometry x="140" y="640" width="100" height="40" as="geometry" />
        </mxCell>
        <mxCell id="tPthy4NSURfQdDl49ahd-4" value="Bestellpositionen" style="whiteSpace=wrap;html=1;align=center;" vertex="1" parent="1">
          <mxGeometry x="600" y="640" width="100" height="40" as="geometry" />
        </mxCell>
        <mxCell id="tPthy4NSURfQdDl49ahd-65" style="rounded=0;orthogonalLoop=1;jettySize=auto;html=1;entryX=0.5;entryY=0;entryDx=0;entryDy=0;endArrow=none;endFill=0;" edge="1" parent="1" source="tPthy4NSURfQdDl49ahd-5" target="tPthy4NSURfQdDl49ahd-2">
          <mxGeometry relative="1" as="geometry" />
        </mxCell>
        <mxCell id="tPthy4NSURfQdDl49ahd-5" value="Name" style="ellipse;whiteSpace=wrap;html=1;align=center;" vertex="1" parent="1">
          <mxGeometry x="600" y="303" width="100" height="40" as="geometry" />
        </mxCell>
        <mxCell id="tPthy4NSURfQdDl49ahd-64" style="rounded=0;orthogonalLoop=1;jettySize=auto;html=1;entryX=0;entryY=0;entryDx=0;entryDy=0;endArrow=none;endFill=0;" edge="1" parent="1" source="tPthy4NSURfQdDl49ahd-6" target="tPthy4NSURfQdDl49ahd-2">
          <mxGeometry relative="1" as="geometry" />
        </mxCell>
        <mxCell id="tPthy4NSURfQdDl49ahd-6" value="Produkt-Id" style="ellipse;whiteSpace=wrap;html=1;align=center;fontStyle=4;" vertex="1" parent="1">
          <mxGeometry x="480" y="303" width="100" height="40" as="geometry" />
        </mxCell>
        <mxCell id="tPthy4NSURfQdDl49ahd-66" style="rounded=0;orthogonalLoop=1;jettySize=auto;html=1;entryX=1;entryY=0;entryDx=0;entryDy=0;endArrow=none;endFill=0;" edge="1" parent="1" source="tPthy4NSURfQdDl49ahd-7" target="tPthy4NSURfQdDl49ahd-2">
          <mxGeometry relative="1" as="geometry" />
        </mxCell>
        <mxCell id="tPthy4NSURfQdDl49ahd-7" value="Beschreibung" style="ellipse;whiteSpace=wrap;html=1;align=center;" vertex="1" parent="1">
          <mxGeometry x="730" y="310" width="100" height="40" as="geometry" />
        </mxCell>
        <mxCell id="tPthy4NSURfQdDl49ahd-67" style="rounded=0;orthogonalLoop=1;jettySize=auto;html=1;entryX=1;entryY=0.5;entryDx=0;entryDy=0;endArrow=none;endFill=0;" edge="1" parent="1" source="tPthy4NSURfQdDl49ahd-8" target="tPthy4NSURfQdDl49ahd-2">
          <mxGeometry relative="1" as="geometry" />
        </mxCell>
        <mxCell id="tPthy4NSURfQdDl49ahd-8" value="Preis" style="ellipse;whiteSpace=wrap;html=1;align=center;" vertex="1" parent="1">
          <mxGeometry x="730" y="380" width="100" height="40" as="geometry" />
        </mxCell>
        <mxCell id="tPthy4NSURfQdDl49ahd-98" style="rounded=0;orthogonalLoop=1;jettySize=auto;html=1;endArrow=none;endFill=0;" edge="1" parent="1" source="tPthy4NSURfQdDl49ahd-9" target="tPthy4NSURfQdDl49ahd-93">
          <mxGeometry relative="1" as="geometry" />
        </mxCell>
        <mxCell id="tPthy4NSURfQdDl49ahd-99" style="edgeStyle=orthogonalEdgeStyle;rounded=0;orthogonalLoop=1;jettySize=auto;html=1;entryX=0;entryY=0.5;entryDx=0;entryDy=0;endArrow=none;endFill=0;" edge="1" parent="1" source="tPthy4NSURfQdDl49ahd-9" target="tPthy4NSURfQdDl49ahd-97">
          <mxGeometry relative="1" as="geometry" />
        </mxCell>
        <mxCell id="tPthy4NSURfQdDl49ahd-101" value="m" style="edgeLabel;html=1;align=center;verticalAlign=middle;resizable=0;points=[];" vertex="1" connectable="0" parent="tPthy4NSURfQdDl49ahd-99">
          <mxGeometry x="-0.2534" y="2" relative="1" as="geometry">
            <mxPoint x="-35" y="-8" as="offset" />
          </mxGeometry>
        </mxCell>
        <mxCell id="tPthy4NSURfQdDl49ahd-9" value="Adresse" style="whiteSpace=wrap;html=1;align=center;" vertex="1" parent="1">
          <mxGeometry x="140" y="120" width="100" height="40" as="geometry" />
        </mxCell>
        <mxCell id="tPthy4NSURfQdDl49ahd-12" style="edgeStyle=orthogonalEdgeStyle;rounded=0;orthogonalLoop=1;jettySize=auto;html=1;entryX=0.5;entryY=1;entryDx=0;entryDy=0;endArrow=none;endFill=0;" edge="1" parent="1" source="tPthy4NSURfQdDl49ahd-10" target="tPthy4NSURfQdDl49ahd-9">
          <mxGeometry relative="1" as="geometry" />
        </mxCell>
        <mxCell id="tPthy4NSURfQdDl49ahd-18" value="1" style="edgeLabel;html=1;align=center;verticalAlign=middle;resizable=0;points=[];labelBackgroundColor=none;" vertex="1" connectable="0" parent="tPthy4NSURfQdDl49ahd-12">
          <mxGeometry x="0.249" y="2" relative="1" as="geometry">
            <mxPoint x="12" y="-21" as="offset" />
          </mxGeometry>
        </mxCell>
        <mxCell id="tPthy4NSURfQdDl49ahd-10" value="wohnt in" style="shape=rhombus;perimeter=rhombusPerimeter;whiteSpace=wrap;html=1;align=center;" vertex="1" parent="1">
          <mxGeometry x="130" y="243" width="120" height="60" as="geometry" />
        </mxCell>
        <mxCell id="tPthy4NSURfQdDl49ahd-88" style="rounded=0;orthogonalLoop=1;jettySize=auto;html=1;endArrow=none;endFill=0;" edge="1" parent="1" source="tPthy4NSURfQdDl49ahd-13" target="tPthy4NSURfQdDl49ahd-9">
          <mxGeometry relative="1" as="geometry" />
        </mxCell>
        <mxCell id="tPthy4NSURfQdDl49ahd-13" value="Hausnummer" style="ellipse;whiteSpace=wrap;html=1;align=center;" vertex="1" parent="1">
          <mxGeometry x="140" y="40" width="100" height="40" as="geometry" />
        </mxCell>
        <mxCell id="tPthy4NSURfQdDl49ahd-58" style="rounded=0;orthogonalLoop=1;jettySize=auto;html=1;entryX=0;entryY=0.5;entryDx=0;entryDy=0;endArrow=none;endFill=0;" edge="1" parent="1" source="tPthy4NSURfQdDl49ahd-14" target="tPthy4NSURfQdDl49ahd-9">
          <mxGeometry relative="1" as="geometry" />
        </mxCell>
        <mxCell id="tPthy4NSURfQdDl49ahd-14" value="Adresse-Id" style="ellipse;whiteSpace=wrap;html=1;align=center;fontStyle=4;" vertex="1" parent="1">
          <mxGeometry x="10" y="120" width="100" height="40" as="geometry" />
        </mxCell>
        <mxCell id="tPthy4NSURfQdDl49ahd-15" value="PLZ" style="ellipse;whiteSpace=wrap;html=1;align=center;" vertex="1" parent="1">
          <mxGeometry x="720" y="40" width="100" height="40" as="geometry" />
        </mxCell>
        <mxCell id="tPthy4NSURfQdDl49ahd-16" value="Name" style="ellipse;whiteSpace=wrap;html=1;align=center;" vertex="1" parent="1">
          <mxGeometry x="720" y="120" width="100" height="40" as="geometry" />
        </mxCell>
        <mxCell id="tPthy4NSURfQdDl49ahd-17" value="Strasse" style="ellipse;whiteSpace=wrap;html=1;align=center;" vertex="1" parent="1">
          <mxGeometry x="10" y="53" width="100" height="40" as="geometry" />
        </mxCell>
        <mxCell id="tPthy4NSURfQdDl49ahd-53" style="rounded=0;orthogonalLoop=1;jettySize=auto;html=1;entryX=0;entryY=0;entryDx=0;entryDy=0;endArrow=none;endFill=0;" edge="1" parent="1" source="tPthy4NSURfQdDl49ahd-20" target="tPthy4NSURfQdDl49ahd-1">
          <mxGeometry relative="1" as="geometry" />
        </mxCell>
        <mxCell id="tPthy4NSURfQdDl49ahd-20" value="Kunden-Id" style="ellipse;whiteSpace=wrap;html=1;align=center;fontStyle=4;" vertex="1" parent="1">
          <mxGeometry x="10" y="340" width="100" height="40" as="geometry" />
        </mxCell>
        <mxCell id="tPthy4NSURfQdDl49ahd-21" value="Vorname" style="ellipse;whiteSpace=wrap;html=1;align=center;" vertex="1" parent="1">
          <mxGeometry x="10" y="420" width="100" height="40" as="geometry" />
        </mxCell>
        <mxCell id="tPthy4NSURfQdDl49ahd-22" value="Nachname" style="ellipse;whiteSpace=wrap;html=1;align=center;" vertex="1" parent="1">
          <mxGeometry x="280" y="340" width="100" height="40" as="geometry" />
        </mxCell>
        <mxCell id="tPthy4NSURfQdDl49ahd-23" value="Email" style="ellipse;whiteSpace=wrap;html=1;align=center;" vertex="1" parent="1">
          <mxGeometry x="280" y="420" width="100" height="40" as="geometry" />
        </mxCell>
        <mxCell id="tPthy4NSURfQdDl49ahd-51" style="edgeStyle=orthogonalEdgeStyle;rounded=0;orthogonalLoop=1;jettySize=auto;html=1;endArrow=none;endFill=0;" edge="1" parent="1" source="tPthy4NSURfQdDl49ahd-24" target="tPthy4NSURfQdDl49ahd-3">
          <mxGeometry relative="1" as="geometry" />
        </mxCell>
        <mxCell id="tPthy4NSURfQdDl49ahd-24" value="Bestell-Id" style="ellipse;whiteSpace=wrap;html=1;align=center;fontStyle=4;" vertex="1" parent="1">
          <mxGeometry x="20" y="640" width="100" height="40" as="geometry" />
        </mxCell>
        <mxCell id="tPthy4NSURfQdDl49ahd-49" style="rounded=0;orthogonalLoop=1;jettySize=auto;html=1;exitX=1;exitY=0;exitDx=0;exitDy=0;entryX=0;entryY=1;entryDx=0;entryDy=0;endArrow=none;endFill=0;" edge="1" parent="1" source="tPthy4NSURfQdDl49ahd-27" target="tPthy4NSURfQdDl49ahd-3">
          <mxGeometry relative="1" as="geometry" />
        </mxCell>
        <mxCell id="tPthy4NSURfQdDl49ahd-27" value="Bestelldatum" style="ellipse;whiteSpace=wrap;html=1;align=center;" vertex="1" parent="1">
          <mxGeometry x="20" y="710" width="100" height="40" as="geometry" />
        </mxCell>
        <mxCell id="tPthy4NSURfQdDl49ahd-50" style="edgeStyle=orthogonalEdgeStyle;rounded=0;orthogonalLoop=1;jettySize=auto;html=1;entryX=0.5;entryY=1;entryDx=0;entryDy=0;endArrow=none;endFill=0;" edge="1" parent="1" source="tPthy4NSURfQdDl49ahd-28" target="tPthy4NSURfQdDl49ahd-3">
          <mxGeometry relative="1" as="geometry" />
        </mxCell>
        <mxCell id="tPthy4NSURfQdDl49ahd-28" value="Kunde-Id" style="ellipse;whiteSpace=wrap;html=1;align=center;" vertex="1" parent="1">
          <mxGeometry x="140" y="710" width="100" height="40" as="geometry" />
        </mxCell>
        <mxCell id="tPthy4NSURfQdDl49ahd-63" style="rounded=0;orthogonalLoop=1;jettySize=auto;html=1;entryX=1;entryY=1;entryDx=0;entryDy=0;endArrow=none;endFill=0;" edge="1" parent="1" source="tPthy4NSURfQdDl49ahd-29" target="tPthy4NSURfQdDl49ahd-4">
          <mxGeometry relative="1" as="geometry" />
        </mxCell>
        <mxCell id="tPthy4NSURfQdDl49ahd-29" value="Bestellmenge" style="ellipse;whiteSpace=wrap;html=1;align=center;" vertex="1" parent="1">
          <mxGeometry x="720" y="710" width="100" height="40" as="geometry" />
        </mxCell>
        <mxCell id="tPthy4NSURfQdDl49ahd-61" style="rounded=0;orthogonalLoop=1;jettySize=auto;html=1;entryX=0;entryY=1;entryDx=0;entryDy=0;endArrow=none;endFill=0;" edge="1" parent="1" source="tPthy4NSURfQdDl49ahd-31" target="tPthy4NSURfQdDl49ahd-4">
          <mxGeometry relative="1" as="geometry" />
        </mxCell>
        <mxCell id="tPthy4NSURfQdDl49ahd-31" value="Bestellung-Id" style="ellipse;whiteSpace=wrap;html=1;align=center;fontStyle=4;" vertex="1" parent="1">
          <mxGeometry x="480" y="710" width="100" height="40" as="geometry" />
        </mxCell>
        <mxCell id="tPthy4NSURfQdDl49ahd-62" style="rounded=0;orthogonalLoop=1;jettySize=auto;html=1;entryX=0.5;entryY=1;entryDx=0;entryDy=0;endArrow=none;endFill=0;" edge="1" parent="1" source="tPthy4NSURfQdDl49ahd-32" target="tPthy4NSURfQdDl49ahd-4">
          <mxGeometry relative="1" as="geometry" />
        </mxCell>
        <mxCell id="tPthy4NSURfQdDl49ahd-32" value="Produkt-Id" style="ellipse;whiteSpace=wrap;html=1;align=center;fontStyle=4;" vertex="1" parent="1">
          <mxGeometry x="600" y="710" width="100" height="40" as="geometry" />
        </mxCell>
        <mxCell id="tPthy4NSURfQdDl49ahd-34" style="edgeStyle=orthogonalEdgeStyle;rounded=0;orthogonalLoop=1;jettySize=auto;html=1;entryX=0.5;entryY=1;entryDx=0;entryDy=0;endArrow=none;endFill=0;" edge="1" parent="1" source="tPthy4NSURfQdDl49ahd-33" target="tPthy4NSURfQdDl49ahd-1">
          <mxGeometry relative="1" as="geometry" />
        </mxCell>
        <mxCell id="tPthy4NSURfQdDl49ahd-37" value="1" style="edgeLabel;html=1;align=center;verticalAlign=middle;resizable=0;points=[];labelBackgroundColor=none;" vertex="1" connectable="0" parent="tPthy4NSURfQdDl49ahd-34">
          <mxGeometry x="0.2762" y="-1" relative="1" as="geometry">
            <mxPoint x="9" y="-16" as="offset" />
          </mxGeometry>
        </mxCell>
        <mxCell id="tPthy4NSURfQdDl49ahd-35" style="edgeStyle=orthogonalEdgeStyle;rounded=0;orthogonalLoop=1;jettySize=auto;html=1;entryX=0.5;entryY=0;entryDx=0;entryDy=0;endArrow=none;endFill=0;" edge="1" parent="1" source="tPthy4NSURfQdDl49ahd-33" target="tPthy4NSURfQdDl49ahd-3">
          <mxGeometry relative="1" as="geometry" />
        </mxCell>
        <mxCell id="tPthy4NSURfQdDl49ahd-36" value="mc" style="edgeLabel;html=1;align=center;verticalAlign=middle;resizable=0;points=[];labelBackgroundColor=none;" vertex="1" connectable="0" parent="tPthy4NSURfQdDl49ahd-35">
          <mxGeometry x="0.1741" relative="1" as="geometry">
            <mxPoint x="10" y="23" as="offset" />
          </mxGeometry>
        </mxCell>
        <mxCell id="tPthy4NSURfQdDl49ahd-33" value="hat ausgeführt" style="shape=rhombus;perimeter=rhombusPerimeter;whiteSpace=wrap;html=1;align=center;" vertex="1" parent="1">
          <mxGeometry x="130" y="500" width="120" height="60" as="geometry" />
        </mxCell>
        <mxCell id="tPthy4NSURfQdDl49ahd-40" style="edgeStyle=orthogonalEdgeStyle;rounded=0;orthogonalLoop=1;jettySize=auto;html=1;entryX=0;entryY=0.5;entryDx=0;entryDy=0;endArrow=none;endFill=0;" edge="1" parent="1" source="tPthy4NSURfQdDl49ahd-38" target="tPthy4NSURfQdDl49ahd-4">
          <mxGeometry relative="1" as="geometry" />
        </mxCell>
        <mxCell id="tPthy4NSURfQdDl49ahd-44" value="m" style="edgeLabel;html=1;align=center;verticalAlign=middle;resizable=0;points=[];labelBackgroundColor=none;" vertex="1" connectable="0" parent="tPthy4NSURfQdDl49ahd-40">
          <mxGeometry x="0.1667" relative="1" as="geometry">
            <mxPoint x="40" y="-10" as="offset" />
          </mxGeometry>
        </mxCell>
        <mxCell id="tPthy4NSURfQdDl49ahd-38" value="besteht aus" style="shape=rhombus;perimeter=rhombusPerimeter;whiteSpace=wrap;html=1;align=center;" vertex="1" parent="1">
          <mxGeometry x="360" y="630" width="120" height="60" as="geometry" />
        </mxCell>
        <mxCell id="tPthy4NSURfQdDl49ahd-42" style="edgeStyle=orthogonalEdgeStyle;rounded=0;orthogonalLoop=1;jettySize=auto;html=1;entryX=0.5;entryY=1;entryDx=0;entryDy=0;endArrow=none;endFill=0;" edge="1" parent="1" source="tPthy4NSURfQdDl49ahd-41" target="tPthy4NSURfQdDl49ahd-2">
          <mxGeometry relative="1" as="geometry" />
        </mxCell>
        <mxCell id="tPthy4NSURfQdDl49ahd-47" value="1" style="edgeLabel;html=1;align=center;verticalAlign=middle;resizable=0;points=[];labelBackgroundColor=none;" vertex="1" connectable="0" parent="tPthy4NSURfQdDl49ahd-42">
          <mxGeometry x="0.2625" y="-1" relative="1" as="geometry">
            <mxPoint x="9" y="-20" as="offset" />
          </mxGeometry>
        </mxCell>
        <mxCell id="tPthy4NSURfQdDl49ahd-43" style="edgeStyle=orthogonalEdgeStyle;rounded=0;orthogonalLoop=1;jettySize=auto;html=1;entryX=0.5;entryY=0;entryDx=0;entryDy=0;endArrow=none;endFill=0;" edge="1" parent="1" source="tPthy4NSURfQdDl49ahd-41" target="tPthy4NSURfQdDl49ahd-4">
          <mxGeometry relative="1" as="geometry" />
        </mxCell>
        <mxCell id="tPthy4NSURfQdDl49ahd-48" value="mc" style="edgeLabel;html=1;align=center;verticalAlign=middle;resizable=0;points=[];labelBackgroundColor=none;" vertex="1" connectable="0" parent="tPthy4NSURfQdDl49ahd-43">
          <mxGeometry x="0.1958" relative="1" as="geometry">
            <mxPoint x="10" y="23" as="offset" />
          </mxGeometry>
        </mxCell>
        <mxCell id="tPthy4NSURfQdDl49ahd-41" value="bestellt" style="shape=rhombus;perimeter=rhombusPerimeter;whiteSpace=wrap;html=1;align=center;" vertex="1" parent="1">
          <mxGeometry x="590" y="500" width="120" height="60" as="geometry" />
        </mxCell>
        <mxCell id="tPthy4NSURfQdDl49ahd-81" style="rounded=0;orthogonalLoop=1;jettySize=auto;html=1;entryX=1;entryY=1;entryDx=0;entryDy=0;endArrow=none;endFill=0;" edge="1" parent="1">
          <mxGeometry relative="1" as="geometry">
            <mxPoint x="280" y="440" as="sourcePoint" />
            <mxPoint x="240" y="420" as="targetPoint" />
          </mxGeometry>
        </mxCell>
        <mxCell id="tPthy4NSURfQdDl49ahd-82" style="rounded=0;orthogonalLoop=1;jettySize=auto;html=1;entryX=1;entryY=0;entryDx=0;entryDy=0;endArrow=none;endFill=0;" edge="1" parent="1">
          <mxGeometry relative="1" as="geometry">
            <mxPoint x="280" y="360" as="sourcePoint" />
            <mxPoint x="240" y="380" as="targetPoint" />
          </mxGeometry>
        </mxCell>
        <mxCell id="tPthy4NSURfQdDl49ahd-86" style="rounded=0;orthogonalLoop=1;jettySize=auto;html=1;entryX=0;entryY=0;entryDx=0;entryDy=0;endArrow=none;endFill=0;" edge="1" parent="1">
          <mxGeometry relative="1" as="geometry">
            <mxPoint x="110" y="73" as="sourcePoint" />
            <mxPoint x="140" y="120" as="targetPoint" />
          </mxGeometry>
        </mxCell>
        <mxCell id="tPthy4NSURfQdDl49ahd-90" style="rounded=0;orthogonalLoop=1;jettySize=auto;html=1;entryX=0;entryY=1;entryDx=0;entryDy=0;endArrow=none;endFill=0;" edge="1" parent="1">
          <mxGeometry relative="1" as="geometry">
            <mxPoint x="102" y="429" as="sourcePoint" />
            <mxPoint x="140" y="420" as="targetPoint" />
          </mxGeometry>
        </mxCell>
        <mxCell id="tPthy4NSURfQdDl49ahd-94" style="rounded=0;orthogonalLoop=1;jettySize=auto;html=1;endArrow=none;endFill=0;" edge="1" parent="1" source="tPthy4NSURfQdDl49ahd-91" target="tPthy4NSURfQdDl49ahd-92">
          <mxGeometry relative="1" as="geometry" />
        </mxCell>
        <mxCell id="tPthy4NSURfQdDl49ahd-95" style="rounded=0;orthogonalLoop=1;jettySize=auto;html=1;exitX=1;exitY=0;exitDx=0;exitDy=0;endArrow=none;endFill=0;" edge="1" parent="1" source="tPthy4NSURfQdDl49ahd-91" target="tPthy4NSURfQdDl49ahd-15">
          <mxGeometry relative="1" as="geometry" />
        </mxCell>
        <mxCell id="tPthy4NSURfQdDl49ahd-96" style="rounded=0;orthogonalLoop=1;jettySize=auto;html=1;endArrow=none;endFill=0;" edge="1" parent="1" source="tPthy4NSURfQdDl49ahd-91" target="tPthy4NSURfQdDl49ahd-16">
          <mxGeometry relative="1" as="geometry" />
        </mxCell>
        <mxCell id="tPthy4NSURfQdDl49ahd-91" value="Ort" style="whiteSpace=wrap;html=1;align=center;" vertex="1" parent="1">
          <mxGeometry x="600" y="120" width="100" height="40" as="geometry" />
        </mxCell>
        <mxCell id="tPthy4NSURfQdDl49ahd-92" value="Ort-Id" style="ellipse;whiteSpace=wrap;html=1;align=center;fontStyle=4;" vertex="1" parent="1">
          <mxGeometry x="600" y="40" width="100" height="40" as="geometry" />
        </mxCell>
        <mxCell id="tPthy4NSURfQdDl49ahd-93" value="Ort-Id" style="ellipse;whiteSpace=wrap;html=1;align=center;" vertex="1" parent="1">
          <mxGeometry x="270" y="40" width="100" height="40" as="geometry" />
        </mxCell>
        <mxCell id="tPthy4NSURfQdDl49ahd-100" style="edgeStyle=orthogonalEdgeStyle;rounded=0;orthogonalLoop=1;jettySize=auto;html=1;entryX=0;entryY=0.5;entryDx=0;entryDy=0;endArrow=none;endFill=0;" edge="1" parent="1" source="tPthy4NSURfQdDl49ahd-97" target="tPthy4NSURfQdDl49ahd-91">
          <mxGeometry relative="1" as="geometry" />
        </mxCell>
        <mxCell id="tPthy4NSURfQdDl49ahd-102" value="1" style="edgeLabel;html=1;align=center;verticalAlign=middle;resizable=0;points=[];" vertex="1" connectable="0" parent="tPthy4NSURfQdDl49ahd-100">
          <mxGeometry x="0.7006" relative="1" as="geometry">
            <mxPoint x="8" y="-10" as="offset" />
          </mxGeometry>
        </mxCell>
        <mxCell id="tPthy4NSURfQdDl49ahd-97" value="befindet sich in" style="shape=rhombus;perimeter=rhombusPerimeter;whiteSpace=wrap;html=1;align=center;" vertex="1" parent="1">
          <mxGeometry x="360" y="110" width="120" height="60" as="geometry" />
        </mxCell>
      </root>
    </mxGraphModel>
  </diagram>
</mxfile>
